<svg height="-809" viewBox="18.1 277.2 604.9 87.4" width="2500" xmlns="http://www.w3.org/2000/svg"><g fill="#00afaa"><path d="m159.7 321.2c-.4 5.4 7.2 3.2 9.2 1.9 2.4-1.5 3.7-2.4 5.3-5 2.5-4.2-.1-6.8-2.2-7-1.2-.1-3.8.3-5.6 3.7-.9 1.7-1.2 3.9-1 5.7-3.1 1.8-3.1-1.5-3.1-2.7 0-.7.1-1.8.2-2.6.3-2.4-.4-1.8-2-.4-1 .9-7.8 6.6-18.9 12.3s-26.9 11.5-51.6 17.2c-29.7 6.9-58.7 5.5-63.2-2.1s18.6-20.9 20.1-21.8c1.6-.9-.3-1.5-1.3-1 0 0-27.5 14.9-22 25.6 5.5 10.6 33.7 10.4 63.5 4.2 49.4-10.3 69.7-28.6 72-30 1.3-.7.8.6.6 2"/><path d="m134.1 301.7c-6.8.7-10.6 2-12.4 2.5-2 .6-3.2 1.5-3.3 2.2-.1.6.3.8 2 .7 2.2-.2 13-2.2 19.4-2.2 7.7 0 12.2 1 13.7 3 1.8 2.3-4.9 10.9-29.9 19.4-26.6 9.1-47.1 12.6-74.5 14.7-1.8.1-2.7 1 .6 1.6 5 .9 30.2 1.4 63.5-9.1 33.2-10.5 46.1-22.3 42.6-28.5-1.4-2.8-8.5-5.6-21.7-4.3"/><path d="m81.2 290.7c5.5-3.7 18.2-7.3 30.8-1.1 18.2 8.9 24.9 29.9 15.2 46.8-9 15.8-23.8 17.3-29 17.7-4.8.3-14.2-.1-18.9-1-2.1-.4-2.2 1-.9 1.4 6 1.8 22.8 6.4 38.8-2.6 17.5-9.8 21.2-25.9 17.1-42.4-4.6-18.1-21.2-28-38.8-27.2-9.9.4-15.2 5.7-15.9 7.8-.5 1.2.3 1.5 1.6.6m-8.3 6c1.6-1.7 2.3-2.3 3-3.1.5-.5-1.2-1.6-4.1.1s-10.6 10.5-12.4 20.6c-2.4 13.6 4.7 25.4 9.3 29.2 4.3 3.5 4.5 1.4 3.7.7-.7-.7-6.7-7.1-8.6-16.6-1.4-7-1.3-11.5 1-18.1 2-5.7 7.2-11.8 8.1-12.8"/><path d="m119.3 310.3c-13.5-7.5-30.5-11.9-40.1-13.5-2.6-.4-3.9 1.7-1.6 2.1 14.4 2.6 24.5 5.1 41.5 12.8.2.1.8.1 1-.2s-.1-.8-.8-1.2m8.4 10c-19.5-10.2-44.9-14.4-55.6-15.5-2.4-.3-3.5 2.3-1.4 2.5 25.8 2.9 43.2 8.1 56.4 14.3.3.1.8.3 1.1-.1.3-.3.2-.8-.5-1.2m-58.5-3.2c20.8.7 41.9 5.3 49.8 7.6.5.1.8-.1.9-.4s-.2-.7-.8-.9c-27.3-8.3-45.7-8.7-49.7-8.7-2.2-.2-3.2 2.3-.2 2.4"/><path d="m98.1 285.1.9-.4v-.8h-.2c-4.4 0-8.9 3.4-12.6 9.5-4.3 7-6.8 16.7-7.1 27.2-.7 23.5 6.5 43.7 15 44h.1c2.2 0 4.7-1.3 5.2-4.6 0-.3.1-1.3-.4-1.4s-.7.5-1 1.2c-.7 1.6-2.2 1.9-3.7 1.8-2.8-.1-6.1-4.1-8.4-12.5-2.5-9.1-4.1-19.4-3.6-29.9.9-22.2 9.9-34.4 15.8-34.1"/><path d="m116 356.4s-.1-.9-.6-.9c-.4 0-.5.6-.5 1-.2 1.4-.8 2.3-1.8 2.6-.3.1-1-.1-1.4-.4-4.1-2.8-10.6-18.6-12.9-37.7-2.6-21.3 2.9-34.9 6.6-35.9l.6-.5-.1-.3c-.2.1-.4.2-.7.3h-.4l-.1-.3c-6.2 1.9-11 18.9-8.2 41.2 2.4 19 8.5 32.4 13.6 35.7.8.6 1.6.8 2.4.8.2 0 .5 0 .7-.1 1.7-.7 3.1-2.7 2.8-5.5"/><path d="m113.6 325.5c-.1-.5-.2-.8-.7-2.7-2-8-4-20.7-2.2-29.9 0-.2.1-.4.1-.5.1-.6 0-.9-.4-.9-.4-.1-.8.3-.8.8 0 .1-.1.2-.1.3-2 9.9-1.1 24.1 1.8 33.8.7 2.5 2.9 1.1 2.3-.9m-37.9-37.5c-.1-1.6-1.4-2.8-3-2.7s-2.8 1.4-2.7 3 1.4 2.8 3 2.7 2.8-1.5 2.7-3m87.4 45c0-1.6-1.3-2.8-2.8-2.8-1.6 0-2.8 1.3-2.8 2.8 0 1.6 1.3 2.8 2.8 2.8 1.5.1 2.8-1.2 2.8-2.8m-81.3-52.1c-.1-2.1-1.9-3.7-4-3.5-2.1.1-3.7 1.9-3.5 4 .1 2.1 1.9 3.7 4 3.5 2-.2 3.6-1.9 3.5-4"/><path d="m173.1 346.4c-.4-2.1-2.5-5.1-5.7-7.8-1.7-1.4-3.3-.5-1.8.8 1.6 1.4 12.3 12.6-2.9 13.3-4.9.2-14.7-.6-33.6-5.7-1.1-.3-2.3-.6-3.6-1-1.5-.4-3-.9-4.6-1.4-2.3-.7-4.7-1.5-7.3-2.4-2.4-.8-4.8-1.7-7.4-2.7-1.4-.5-2.9-1.1-4.4-1.7-.2-.1-.4-.2-.7-.3-1.3-.5-2.6-1-3.9-1.6-.5-.2-1.1-.4-1.6-.7-4.3-1.8-8.8-4-13.2-6.1-1.3-.6-2.6-1.3-3.9-1.9-5.5-2.8-10.9-5.8-15.8-8.9-1.4-.9-2.7-1.7-4-2.6-2.6-1.8-6.4-4.5-8.7-6.4-17.2-14.2-.3-14.3 17.7-12.1 1.2.1 2.4.3 3.6.5l1.6-2.7c-.9-.1-1.9-.3-2.8-.4-13.7-1.9-23.1-1.2-27 1.3-2.6 1.7-6.1 6.3 4.9 15.8 2.9 2.5 6.4 5.2 10.3 7.9 1.4 1 2.9 1.9 4.4 2.9 4.8 3.1 10.2 6.3 16 9.4 1.3.7 2.6 1.4 4 2.1 1.8.9 3.7 1.8 5.6 2.7s3.9 1.8 5.8 2.7c1.4.6 2.7 1.2 4.1 1.8.1.1.3.1.4.2l3.6 1.5c1.2.5 2.4 1 3.6 1.4 3.4 1.3 6.9 2.5 10.3 3.7 1.5.5 3 1 4.6 1.4 1.6.5 3.2.9 4.8 1.3 21.4 5.7 33.4 6.4 40.3 4.8h.1c.6-.1 8.7-1.8 7.2-9.1"/></g><path d="m254.1 340.2h-4.4c-.3 0-.5-.2-.5-.5v-12.7c0-3.5.2-6.5.2-9.2 0-.3.2-1.1 0-1.1s-.4.5-.5.5c-.7 1.2-2.1 3.3-2.9 4.5l-11 15.6c-.2.3-.6.3-.7 0l-11.3-15.6c-.8-1.2-2.1-3.4-2.9-4.6-.2-.4-.2-.5-.4-.4s-.1.7-.1 1c.1 2.7.2 5.5.2 9.1v13c0 .2-.2.5-.5.5h-4.3c-.3 0-.5-.2-.5-.5v-37.5c0-.4.6-.6.8-.3 3.4 4.8 16.4 23.2 18.8 26.7.2.3.6.3.7 0 2.4-3.5 15.4-21.8 18.8-26.7.3-.4.8-.2.8.3v37.5c.1.2-.1.4-.3.4m39.4.8c-10 0-15.6-5.9-15.6-16.5v-21.4c0-.4.3-.7.7-.7h3.9c.4 0 .7.3.7.7v21.4c0 7.7 3.4 11.5 10.3 11.5 7 0 10.3-3.7 10.3-11.5v-21.4c0-.4.3-.7.7-.7h3.9c.4 0 .7.3.7.7v21.4c0 10.5-5.7 16.5-15.6 16.5m61.7-20.9c-.5-.3-.6-1-.1-1.4 2-1.5 3.6-3.9 3.6-6.7 0-5.6-4.6-9.5-11.1-9.5h-12.1c-.4 0-.8.4-.8.8v36.2c0 .4.4.8.8.8h13c7.7 0 12.6-4.4 12.6-11.3 0-4.3-2.9-7.4-5.9-8.9m-15.2-12.1c0-.4.4-.8.8-.8h6c4.1 0 6.7 2.1 6.7 5.2s-2.9 5.4-6.7 5.4h-6c-.4 0-.8-.4-.8-.8zm8.2 27.5h-7.4c-.4 0-.8-.4-.8-.8v-11.8c0-.4.4-.8.8-.8h7.2c4.3 0 7.7 2.9 7.7 6.7 0 4-3 6.7-7.5 6.7m105.6-33h-14c-.3 0-.6.3-.6.6v36.5c0 .3.3.6.6.6h14.3c10.9 0 19.2-8 19.2-18.7 0-10.8-8.4-19-19.5-19m.3 32.7h-9c-.3 0-.6-.3-.6-.6v-26.5c0-.3.3-.6.6-.6h8.7c8.2 0 14.1 5.9 14.1 14.1 0 8.9-6.9 13.6-13.8 13.6m114.9 5h-24.1c-.3 0-.5-.2-.5-.5v-36.7c0-.3.2-.5.5-.5h4.2c.3 0 .5.2.5.5v31.7c0 .3.2.5.5.5h20.8c.4 0 .6.4.5.7l-1.9 4c-.1.2-.3.3-.5.3m-150.5 0h-4.6c-.2 0-.3-.1-.4-.2l-2.9-5.8c-.1-.1-.2-.2-.4-.2h-16.5c-.3 0-.5-.3-.4-.6l2-3.9c.1-.1.2-.2.4-.2h11.7c.3 0 .5-.3.4-.6l-8.4-17.1s0-.1-.1-.2c0 .1-.1.2-.1.2l-14 28.4c-.1.1-.2.2-.4.2h-4.4c-.3 0-.5-.3-.4-.6l19-38.1c.2-.3.6-.3.7 0l19.1 38c.2.3 0 .7-.3.7m108.1 0h-4.6c-.2 0-.3-.1-.4-.2l-2.9-5.8c-.1-.1-.2-.2-.4-.2h-16.5c-.3 0-.5-.3-.4-.6l2-3.9c.1-.1.2-.2.4-.2h11.7c.3 0 .5-.3.4-.6l-8.4-17.1s0-.1-.1-.2c0 .1-.1.2-.1.2l-14 28.4c-.1.1-.2.2-.4.2h-4.4c-.3 0-.5-.3-.4-.6l19-38.1c.2-.3.6-.3.8 0l19.1 38c.1.3-.1.7-.4.7m95.9 0h-4.6c-.2 0-.3-.1-.4-.2l-2.9-5.8c-.1-.1-.2-.2-.4-.2h-16.5c-.3 0-.5-.3-.4-.6l2-3.9c.1-.1.2-.2.4-.2h11.7c.3 0 .5-.3.4-.6l-8.4-17.1s0-.1-.1-.2c0 .1-.1.2-.1.2l-14 28.4c-.1.1-.2.2-.4.2h-4.4c-.3 0-.5-.3-.4-.6l19-38.1c.2-.3.6-.3.8 0l19.1 38c.1.3-.1.7-.4.7" fill="#333e48"/></svg>