<?xml version="1.0" encoding="UTF-8"?><svg id="uuid-19c18c0d-d42d-4d3a-adc4-b954efca74cd" xmlns="http://www.w3.org/2000/svg" viewBox="0 0 165.82 74">
<title>Public Investment Fund logo - Brandlogos.net</title><path d="M116.33,16.26c-.43-1.43-1.2-2.7-2.29-3.79-1.1-1.1-2.59-1.96-4.5-2.62-1.91-.65-4.34-.98-7.28-.98h-15.77v.22s2.3,1.59,2.3,5.81v30.73h6.49V14.32h6.87c1.64,0,2.99.15,4.07.43,1.07.29,1.93.71,2.56,1.25.64.54,1.08,1.23,1.34,2.05.25.82.39,1.77.39,2.87s-.12,2-.36,2.84c-.24.84-.66,1.55-1.28,2.16-.62.6-1.47,1.06-2.54,1.39-1.07.32-2.44.49-4.12.49h-2.45l-2.3,5.51h4.92c2.88,0,5.26-.34,7.15-1.01s3.39-1.58,4.5-2.73c1.11-1.14,1.88-2.48,2.32-4.01.43-1.53.65-3.13.65-4.8,0-1.56-.22-3.06-.65-4.5h0Z" style="fill:#025d4d;"/><path d="M122.01,8.87v.22s2.3,1.59,2.3,5.81v30.73h6.6V8.84l-6.6.02h-2.3Z" style="fill:#025d4d;"/><path d="M163.52,14.54l2.3-5.67h-27.18v.22s2.3,1.59,2.3,5.81v30.73h6.6v-14.34h12.94l2.3-5.67h-15.24v-11.08h15.98,0Z" style="fill:#025d4d;"/><path d="M130.9,53.28h-42.17v.61h42.17v-.61Z" style="fill:#c5994f;"/><path d="M135.9,53.41c0,1.02.79,1.65,1.76,1.65h.84c-.22.58-.85.87-1.53.87-.89,0-1.76-.45-1.76-1.39v-.74l-.99.2v.43c0,1.51,1.32,2.17,2.7,2.17,1.47,0,2.71-.67,2.71-2.26v-2.65h-1.71c-1.02,0-2.02.54-2.02,1.73h0ZM138.63,54.27v.11h-.76c-.55,0-.99-.36-.99-1,0-.68.47-1.02,1.01-1.02h.73v1.91Z" style="fill:#c5994f;"/><path d="M137.41,50.9c.25,0,.46-.2.46-.46s-.21-.46-.46-.46-.46.2-.46.46.21.46.46.46Z" style="fill:#c5994f;"/><path d="M138.65,50.9c.25,0,.46-.2.46-.46s-.2-.46-.46-.46-.46.2-.46.46.2.46.46.46Z" style="fill:#c5994f;"/><path d="M140.49,53.42c0,1.02.79,1.64,1.76,1.64h.96c-.07.7-.46.97-1.22.97h-.57v.62h.72c1.32,0,2.06-.5,2.06-1.99v-2.96h-1.71c-1.01,0-2.02.54-2.02,1.73h0ZM143.23,54.39h-.76c-.54,0-.99-.35-.99-.99,0-.68.47-1.03,1.02-1.03h.72v2.03h0Z" style="fill:#c5994f;"/><path d="M153.91,51.18c.28,0,.5-.22.5-.5s-.23-.5-.5-.5-.5.23-.5.5.22.5.5.5Z" style="fill:#c5994f;"/><path d="M162.69,52.11h-2.25l-.21.45v-.74l-.98.19v2.39h-4.88v-2.46l-.98.2v2.27h-5.32v-1.04c0-1.16-.64-1.66-1.8-1.66h-.91v.66h.66c.72,0,1.06.24,1.06.87v1.17h-2.14v.67h8.45c.33,0,.61-.13.78-.34l.24.34h10.19v-1.28c0-1.19-.9-1.65-1.9-1.65l-.02-.02ZM163.6,54.39h-3.36v-1.62h2.36c.61,0,.99.34.99.87v.74h0Z" style="fill:#c5994f;"/><path d="M89.88,60.76c.25,0,.46-.2.46-.46s-.2-.46-.46-.46-.46.2-.46.46.2.46.46.46Z" style="fill:#c5994f;"/><path d="M91.11,60.76c.25,0,.46-.2.46-.46s-.2-.46-.46-.46-.46.2-.46.46.2.46.46.46Z" style="fill:#c5994f;"/><path d="M95.84,61.48h-1.26l-.43,1.57c-.18.72-.38,1.11-1.04,1.11h-.74v-2.88l-.98.2v.23h-1.13c-.93,0-1.63.61-1.63,1.56s.7,1.56,1.63,1.56h.97l.32-.49c.18.31.51.49.93.49h.71c1.13,0,1.71-.57,1.98-1.65l.24-1.02h.46c.53,0,1,.36,1,1.02v.98h-2.11l.46.67h2.63v-1.6c0-1.18-.98-1.75-2-1.75h0ZM90.48,64.16c-.53,0-.87-.35-.87-.89s.35-.89.87-.89h.91v1.37c0,.15.02.28.06.41h-.97Z" style="fill:#c5994f;"/><path d="M110.54,64.15h-4.03c.5-.36.77-.87.77-1.35,0-.72-.62-1.36-1.84-1.36-.65,0-1.31.18-1.83.37l-.34.47.06.04-.06.02.15.34c.42.71.67,1.16.99,1.47h-4.67v-4.89l-.99.2v4.36c0,.59.39.99.99.99h4.48c.46,0,.77-.14,1.1-.24.24.09.5.24.93.24h5.26v-5.55l-.99.19v4.7h.02ZM105.49,64.03c-.44-.28-.84-.89-1.14-1.4-.03-.05-.13-.18-.22-.29.35-.11.77-.21,1.11-.21.62,0,1.06.35,1.06.87,0,.4-.25.84-.8,1.03Z" style="fill:#c5994f;"/><path d="M112.69,64.82h.99v-5.55l-.99.19v5.36Z" style="fill:#c5994f;"/><path d="M120.03,61.92c.25,0,.46-.2.46-.46s-.2-.46-.46-.46-.46.2-.46.46.21.46.46.46Z" style="fill:#c5994f;"/><path d="M118.79,61.92c.25,0,.46-.2.46-.46s-.21-.46-.46-.46-.46.2-.46.46.21.46.46.46Z" style="fill:#c5994f;"/><path d="M121.39,64.15h-3.33c-.69,0-.9-.25-.9-.97v-.69l-.99.2v.3c0,1.31.62,1.84,1.77,1.84h4.44v-3.13l-.98.2v2.27h0Z" style="fill:#c5994f;"/><path d="M123.54,64.82h.99v-5.55l-.99.19v5.36Z" style="fill:#c5994f;"/><path d="M125.7,65.09c0,.63-.29.91-.88,1l.22.61c1.16-.15,1.65-.78,1.65-1.84v-3.18l-.99.2v3.2Z" style="fill:#c5994f;"/><path d="M140.46,60.94c.25,0,.46-.2.46-.46s-.21-.46-.46-.46-.46.2-.46.46.21.46.46.46Z" style="fill:#c5994f;"/><path d="M141.05,59.89c.25,0,.46-.2.46-.46s-.21-.46-.46-.46-.46.2-.46.46.2.46.46.46Z" style="fill:#c5994f;"/><path d="M141.24,60.48c0,.24.2.46.46.46s.46-.2.46-.46-.21-.46-.46-.46-.46.2-.46.46Z" style="fill:#c5994f;"/><path d="M145.82,60.94c.25,0,.46-.2.46-.46s-.21-.46-.46-.46-.46.2-.46.46.2.46.46.46Z" style="fill:#c5994f;"/><path d="M147.06,60.94c.25,0,.46-.2.46-.46s-.2-.46-.46-.46-.46.2-.46.46.2.46.46.46Z" style="fill:#c5994f;"/><path d="M156.43,64.15h-1.24c.03-.09.05-.2.05-.32v-1.91l-.98.2v2.04h-1.38v-2.22l-.99.19v2.03h-4.36v-2.46l-.99.2v2.27h-4.39v-2.46l-.99.2v2.27h-4.51v-.93c0-1.18-.99-1.75-2-1.75h-1.26l-.43,1.57c-.18.72-.38,1.11-1.04,1.11h-.17s0,.02-.02.02c0,0,0-.02-.02-.02h-3v-4.88l-.98.2v4.37c0,.59.39.99.99.99h2.99s0-.02.02-.02c0,0,0,.02.02.02h.22c1.14,0,1.71-.57,1.98-1.65l.24-1.02h.45c.53,0,1,.36,1,1.02v.98h-2.11l.46.67h7.14c.33,0,.61-.13.78-.34l.24.34h4.36c.33,0,.61-.13.78-.34l.24.34h6.71c.34,0,.61-.13.8-.35l.24.35h2.14v-3.13l-.99.2v2.27-.02Z" style="fill:#c5994f;"/><path d="M161.43,64.15h-1.35v-3.96l-.99.2v3.77h-.95v.67h4.28v-5.55l-.99.18v4.7Z" style="fill:#c5994f;"/><path d="M163.57,59.47v5.36h.99v-5.55l-.99.19Z" style="fill:#c5994f;"/><path d="M74,37c0,20.44-16.56,37-37,37S0,57.44,0,37,16.57,0,37,0s37,16.56,37,37ZM37,2.77C18.1,2.77,2.77,18.1,2.77,37s15.32,34.23,34.23,34.23,34.23-15.32,34.23-34.23S55.9,2.77,37,2.77Z" style="fill:#025d4d;"/><path d="M37,11.21c-14.25,0-25.79,11.54-25.79,25.79s11.54,25.79,25.79,25.79,25.79-11.54,25.79-25.79-11.54-25.79-25.79-25.79ZM37,61.68c-13.63,0-24.68-11.05-24.68-24.68s11.05-24.68,24.68-24.68,24.68,11.05,24.68,24.68-11.05,24.68-24.68,24.68Z" style="fill:#025d4d;"/><path d="M68.74,32.26l-3.92.73-.15-.89,3.92-.74.16.9h0Z" style="fill:#025d4d;"/><path d="M68.53,43.03l-3.94-.67.17-.89,3.93.66-.15.9h0Z" style="fill:#025d4d;"/><path d="M64.89,40.71l.09-.9,1.44.15.09-.78c.07-.65.54-1.17,1.35-1.08.76.08,1.28.62,1.17,1.6-.11,1.06-.82,1.36-1.63,1.28l-2.51-.27ZM67.66,40.1c.42.05.72-.12.76-.47.03-.31-.17-.56-.61-.61-.42-.05-.69.15-.72.45l-.06.56.64.07h0Z" style="fill:#025d4d;"/><path d="M67.63,34.32l.04.66,1.37-.08.06.91-1.37.08.04.64,1.32-.08.06.9-1.93.11-.18-3.1-2.05.12-.06-.91,3.99-.23.06.91-1.33.08h0Z" style="fill:#025d4d;"/><path d="M9.1,33.47l-3.8-.58.13-.89,2.46.37.1-.69.65.1-.02.1c-.03.2,0,.38.13.53.11.14.26.25.44.32l-.11.74h0Z" style="fill:#025d4d;"/><path d="M6.59,34.53c.11-.17.26-.32.46-.42.2-.1.42-.15.68-.13.31.02.56.09.76.24.2.14.33.32.42.54.09.21.12.43.11.65-.03.51-.22.87-.58,1.08-.35.2-.86.29-1.5.26-.72-.04-1.23-.2-1.51-.47-.28-.28-.41-.64-.39-1.08.02-.34.12-.61.31-.83.19-.22.44-.35.76-.41l.07.85c-.3.05-.45.19-.46.42,0,.21.07.36.25.46.18.09.42.16.71.17v-.02c-.09-.1-.17-.22-.21-.35-.05-.13-.06-.27-.06-.42,0-.19.07-.37.18-.54h0ZM7.25,34.97c-.12.09-.17.21-.18.36,0,.14.04.28.15.39.11.11.26.17.45.18.2,0,.35-.03.47-.13.12-.09.18-.22.19-.37,0-.15-.04-.28-.14-.38-.1-.1-.25-.17-.46-.17-.2,0-.36.03-.47.13h0Z" style="fill:#025d4d;"/><path d="M8.86,37.16l.15,2.78-.84.05-3.09-1.4-.06-1.05,3.09,1.45-.09-1.78.84-.05Z" style="fill:#025d4d;"/><path d="M9.32,41.93l-3.8.57-.13-.89,2.46-.37-.1-.69.65-.09.02.1c.03.2.12.36.28.46.15.1.32.17.51.17l.11.74h0Z" style="fill:#025d4d;"/><path d="M63.36,19.5c.2-.15.26-.43.11-.64-.15-.2-.43-.26-.64-.11-.2.15-.26.44-.11.65.15.2.43.25.64.1Z" style="fill:#025d4d;"/><path d="M64.47,23.95l-.78-1.63-.47.06.58-.35-.5-.81-1.63.98c-.2-.34-.41-.67-.63-.99l1.58-1.11-.57-.8-1.56,1.1c-.22-.31-.44-.61-.67-.91l.48-.39c.72-.59.77-1.26.11-2.07l-.43-.52-.49.43.27.32c.37.45.35.73.03,1l-.57.47c-.34-.41-.68-.81-1.04-1.2l-.48.44c.81.88,1.58,1.83,2.27,2.81.19.27.42.43.69.45l-.13.39c1,1.52,1.86,3.14,2.55,4.86l.91-.46c.91-.46.85-1.32.48-2.04h0ZM63.67,25.05l-.41.2c-.34-.76-.72-1.5-1.12-2.23l.88-.55.82,1.69c.2.39.12.72-.18.87h0Z" style="fill:#025d4d;"/><path d="M56.54,13.15l-1.24,1.65c-.79,1.05-1.96.81-2.89.11-.9-.68-1.48-1.76-.72-2.78l.31-.4.78.59-.37.5c-.43.58-.07,1.22.43,1.6.36.28.82.4,1.21.2l-.44-.33c-.64-.48-.81-1.26-.34-1.88.58-.76,1.49-.62,2.15-.12l1.13.86h0ZM55,12.81c-.29-.22-.68-.2-.95.16-.25.34-.19.72.12.95l.35.27s.04-.05.05-.06l.79-1.05-.36-.27ZM55.4,11.55c-.18-.13-.21-.39-.08-.58.14-.18.39-.22.58-.09.18.14.22.39.08.58-.13.18-.39.22-.58.08h0ZM56.24,12.19c-.18-.13-.21-.39-.08-.58.14-.18.39-.22.58-.09.18.14.22.39.08.58-.13.18-.39.22-.58.08Z" style="fill:#025d4d;"/><path d="M59.32,15.76l-1.6,1.66c-.89.92-1.62.72-2.4-.02l-.38-.36.43-.44.27.26c.39.39.72.46,1.11.15l-.48-.46c-.58-.56-.65-1.34-.11-1.91.66-.69,1.54-.43,2.14.15l1.02.98v-.02ZM57.21,16.54l.95-.99-.32-.32c-.26-.25-.65-.28-.95.03-.29.31-.28.69,0,.96l.32.31h0Z" style="fill:#025d4d;"/><path d="M23.59,9.76c.2-.1.28-.35.18-.55-.1-.2-.35-.28-.56-.18-.2.1-.28.35-.17.56.1.2.35.28.55.17Z" style="fill:#025d4d;"/><path d="M22.66,10.24c.2-.1.28-.35.18-.55-.1-.2-.35-.28-.56-.18-.2.1-.28.35-.17.56.1.2.35.28.55.17Z" style="fill:#025d4d;"/><path d="M36.33,5.4c0,.22.19.4.42.4s.41-.19.41-.42-.19-.41-.43-.41-.41.19-.4.43Z" style="fill:#025d4d;"/><path d="M35.69,5.82c.23,0,.41-.19.41-.42s-.19-.41-.42-.41-.41.19-.4.42c0,.23.19.41.42.4h0Z" style="fill:#025d4d;"/><path d="M36.19,4.92c.23,0,.41-.19.41-.42s-.19-.41-.43-.41-.41.19-.4.43c0,.22.19.41.42.4Z" style="fill:#025d4d;"/><path d="M39.12,5.87c.23.02.43-.16.44-.39.02-.23-.16-.43-.39-.44s-.42.16-.43.39c-.02.23.16.42.39.43h0Z" style="fill:#025d4d;"/><path d="M38.07,5.8c.23.02.43-.16.44-.39.02-.23-.16-.43-.39-.44-.23-.02-.42.16-.43.39-.02.23.16.42.39.43h0Z" style="fill:#025d4d;"/><path d="M26.45,10.93l-.97-2.39-.76.31.73,1.82c-.99.43-2.05.99-2.56,1.29-.4.23-.61.17-.82-.24l-.29-.54-.86.46.19.35c.5.93,1.14.98,1.96.57,1.08-.61,2.21-1.17,3.37-1.64h0Z" style="fill:#025d4d;"/><path d="M42.33,9.39c.33.06.61,0,.82-.19l.17.39c.55.13,1.09.27,1.62.43l.65-2.49-.95-.24-.48,1.85c-.27-.07-.54-.13-.81-.2.05-.09.09-.2.11-.31l.27-1.32-.96-.2-.34,1.64c-.32-.06-.65-.12-.98-.17l.23-1.62-.97-.14-.24,1.62c-.35-.04-.81-.09-1.17-.12l.16-1.91-.97-.08-.16,1.94c-.4-.02-.8-.03-1.21-.03v-1.92h-.96l-.02,1.94c-.36,0-.72.03-1.07.06l-.08-.65c-.13-.96-.97-1.31-1.8-1.2l-1.14.17-.09,1.28c-.07.51-.2.83-.61.89l-.47.1-.87-3.44-.95.23.8,3.14c.13.57.59.84,1.15.72.17-.03.33-.07.49-.1.57-.11.97-.35,1.18-.75l.46.47c1.01-.14,2.03-.22,3.07-.25.32,0,.54-.14.71-.35l.28.33c.38,0,.76.02,1.14.04.32.02.59-.09.78-.29l.21.35c1.01.09,2.01.22,2.99.41h0ZM32.74,8.55c.08-.19.17-.42.2-.65l.09-.76.25-.03c.35-.05.69.17.74.61l.09.67c-.46.05-.91.1-1.37.17h0Z" style="fill:#025d4d;"/><path d="M50.28,7.54l-.9-.39-1.36,3.27c-.28-.12-.58-.23-.86-.34l.93-2.73-.92-.33-.93,2.73c-.23-.08-.46-.16-.69-.23l-.17.63c1.13.35,2.23.77,3.29,1.26l1.61-3.88Z" style="fill:#025d4d;"/><path d="M26.43,6.46l1.49,3.92-.92.33-1.49-3.92.92-.34h0Z" style="fill:#025d4d;"/><path d="M29.48,9.79c.24.84-.02,1.47-.91,1.9l-.39-.51c.39-.21.57-.45.43-.89l-.76-2.58.94-.28.7,2.36Z" style="fill:#025d4d;"/><path d="M51.98,8.37l-1.83,3.77-.87-.44,1.83-3.77.87.44h0Z" style="fill:#025d4d;"/><path d="M8.14,23.75c-.21-.09-.46,0-.55.2-.09.2,0,.45.2.54.2.09.45,0,.54-.2.09-.21,0-.46-.2-.55h0Z" style="fill:#025d4d;"/><path d="M8.57,22.79c-.21-.09-.46,0-.55.2-.09.2,0,.45.2.54.2.09.45,0,.54-.2.09-.21,0-.46-.2-.55h0Z" style="fill:#025d4d;"/><path d="M14.27,20.45c-.09-.06-.47-.28-1.15-.71-.79-.5-1.63-.09-2.08.63l-.56.88.89,1c.35.38.54.69.35,1.06l-.02.03-.06.1-.17.32-1.98-1.02-.45.87.34.17-.35.68c-.33.66-.16,1.4.51,1.74.67.34,1.4.05,1.74-.61l.04-.08c.05-.1.09-.21.14-.32l.1-.23-.2-.4c.26-.05.47-.21.64-.46.07-.13.29-.54.29-.54.28-.51.32-.88.17-1.32l.67-.11c.35-.58.73-1.13,1.13-1.67h-.02ZM10.83,25.1c-.15.32-.46.43-.77.28-.33-.15-.44-.46-.29-.78l.24-.5.73.39c.11.06.22.09.32.12l-.24.5h0ZM12.46,22.04l-.05.07c-.09-.19-.28-.45-.42-.59-.13-.14-.54-.59-.54-.59l.13-.21c.19-.3.57-.43.95-.18l.63.39c-.24.36-.48.73-.72,1.11h0Z" style="fill:#025d4d;"/><path d="M16.16,18.13c.28-.31.39-.59.51-.87.23-.07.49-.17.75-.44.61-.65,1.32-1.22,2.01-1.78l-2.61-3.29-.76.62,2.23,2.81c-.4.35-.8.71-1.18,1.07.06-.46-.09-.9-.34-1.14-.4-.39-1.1-.38-1.79.35-.36.38-.62.84-.81,1.24,0,0,.1.46.11.5.02.06.13.11.22.13.09.02.99.19,1.32.22-.43.46-.84.94-1.23,1.43h0l-2.79-2.24-.6.77,2.5,2.02c.46.36,1.01.31,1.36-.15.35-.43.71-.86,1.09-1.27h0ZM14.93,16.64c.11-.2.24-.43.39-.58.29-.31.65-.37.92-.11.19.18.28.47.17.81-.38.04-1.35-.1-1.47-.12Z" style="fill:#025d4d;"/><path d="M18.28,10.67l2.43,3.42-.79.58-2.43-3.42.79-.58h0Z" style="fill:#025d4d;"/><path d="M11.58,49.79c-.12.3-.37.53-.75.7-.38.17-.72.2-1.02.09-.3-.1-.54-.34-.7-.69l-.35-.76-1.17.53-.36-.8,3.57-1.62.71,1.57c.17.36.18.69.06.98h0ZM9.78,49.42c.07.15.17.24.28.29.12.04.25.03.4-.04s.24-.16.29-.28c.05-.12.04-.25-.03-.4l-.28-.61-.95.43.28.61h0Z" style="fill:#025d4d;"/><path d="M10.91,54.52c-.26,0-.5-.06-.72-.2-.22-.14-.41-.34-.56-.6-.24-.39-.32-.78-.25-1.16s.32-.69.75-.95l2.11-1.29.46.76-2.02,1.24c-.46.28-.57.61-.34.98.23.38.58.43,1.02.15l2.02-1.24.46.76-2.11,1.29c-.28.17-.56.27-.83.28h0Z" style="fill:#025d4d;"/><path d="M15.64,55.71c-.02.27-.17.5-.41.7-.14.12-.29.18-.43.2-.15.02-.29,0-.43-.06l-.02.02c.04.18.03.35-.02.52-.06.17-.17.32-.35.46-.28.23-.58.34-.85.31-.28-.02-.54-.17-.76-.45l-1.24-1.54,3.05-2.45,1.2,1.49c.21.26.3.53.28.8h0ZM12.84,56.76c.09.11.18.17.29.17.1,0,.21-.03.32-.11.11-.09.17-.18.18-.29.02-.11-.02-.21-.11-.32l-.55-.69-.68.54.55.69h0ZM14.01,55.75c.08.1.17.16.27.17.09,0,.2-.02.3-.11.1-.08.16-.17.17-.27.02-.1-.02-.2-.1-.3l-.52-.65-.64.51.52.65h0Z" style="fill:#025d4d;"/><path d="M13.71,58.98l2.73-2.8.63.62-2.14,2.18,1.27,1.24-.6.61-1.9-1.86h0Z" style="fill:#025d4d;"/><path d="M16.11,61.24l2.51-3,.68.57-2.51,3-.68-.57Z" style="fill:#025d4d;"/><path d="M20.39,63.63c-.24.1-.5.14-.78.12-.27-.02-.53-.13-.78-.3-.28-.2-.49-.44-.62-.72-.13-.28-.17-.6-.13-.95.05-.34.19-.69.43-1.04.24-.35.51-.61.82-.77.31-.17.61-.24.93-.21.32.02.61.13.9.33.24.17.43.38.55.61.12.24.18.49.18.74s-.06.5-.16.72l-.8-.39c.08-.18.1-.37.06-.55-.04-.18-.14-.33-.31-.45-.13-.09-.28-.13-.43-.14-.17,0-.33.05-.5.15-.17.1-.34.27-.49.49-.16.22-.25.43-.28.63-.04.2-.02.37.04.53.06.15.16.27.28.35.17.12.35.16.54.12.19-.04.36-.14.53-.32l.69.58c-.2.2-.42.36-.66.47Z" style="fill:#025d4d;"/><path d="M22.04,65.3l1.79-3.48.79.4-1.79,3.48-.79-.4Z" style="fill:#025d4d;"/><path d="M26.62,67.32l-.92-.37-.28-2.85h-.02l-.95,2.36-.75-.3,1.45-3.63.94.38.28,2.8h.02l.92-2.31.75.3-1.45,3.63h0Z" style="fill:#025d4d;"/><path d="M31.77,64.66l-2.13,3.5-1.04-.27-.2-4.09.92.24.06,2.96h.02l1.46-2.57.91.23Z" style="fill:#025d4d;"/><path d="M32.85,66.32l1.65.2-.09.76-1.65-.21-.1.8,1.73.22-.1.82-2.61-.33.5-3.88,2.61.33-.1.79-1.73-.22-.09.72Z" style="fill:#025d4d;"/><path d="M36.97,65.9c-.1-.09-.24-.14-.42-.14-.16,0-.28.03-.37.1-.09.07-.14.16-.14.27,0,.09.03.17.1.22.07.06.17.09.32.13l.54.17c.24.07.43.15.58.22s.27.2.37.36c.1.17.15.39.14.68,0,.4-.15.71-.43.91-.28.2-.63.29-1.06.28-.43,0-.79-.13-1.07-.35-.28-.23-.44-.55-.47-.97l.87-.09c.02.21.09.38.21.49.13.11.28.17.48.17.17,0,.3-.03.4-.1.1-.07.16-.17.16-.3,0-.12-.03-.21-.11-.27-.08-.06-.2-.12-.39-.17l-.49-.16c-.21-.07-.39-.14-.54-.21-.14-.07-.25-.19-.35-.34-.09-.15-.13-.35-.13-.61,0-.39.14-.68.4-.88.27-.2.61-.3,1.02-.29.39,0,.7.12.95.33.25.21.4.51.45.91l-.85.06c-.02-.17-.08-.3-.18-.39h.02Z" style="fill:#025d4d;"/><path d="M41.32,65.67l-1.08.1.29,3.04-.88.09-.29-3.04-1.08.1-.08-.86,3.03-.29.08.86h0Z" style="fill:#025d4d;"/><path d="M45.2,63.94l.89,3.81-.8.19-.62-2.67h-.02l-.06,2.83-.61.14-1.3-2.51h-.02l.62,2.67-.79.18-.89-3.81,1.27-.29,1.06,2.18h.02l-.02-2.43,1.26-.29Z" style="fill:#025d4d;"/><path d="M47.15,64.83l1.55-.59.28.72-1.55.59.28.75,1.63-.62.29.77-2.46.94-1.39-3.66,2.46-.94.28.74-1.63.62.26.68Z" style="fill:#025d4d;"/><path d="M53.38,64.56l-.87.46-2.36-1.64h-.02l1.2,2.26-.71.38-1.84-3.46.89-.47,2.32,1.6h.02l-1.17-2.21.71-.38,1.84,3.46h0Z" style="fill:#025d4d;"/><path d="M54.89,59.83l-.88.62,1.76,2.5-.72.51-1.76-2.5-.88.62-.5-.7,2.5-1.75.5.7h0Z" style="fill:#025d4d;"/><path d="M56.71,58.14l.59.61,1.2-1.15.53.55-1.2,1.15,1.04,1.09-.64.61-2.71-2.83,1.9-1.82.55.58-1.26,1.21Z" style="fill:#025d4d;"/><path d="M62.14,55.9c.09.24.11.5.05.75-.06.25-.19.5-.38.72-.29.35-.63.56-1.01.61-.38.06-.76-.08-1.15-.39l-1.91-1.57.56-.69,1.84,1.5c.41.34.76.34,1.03,0,.28-.34.21-.68-.2-1.02l-1.84-1.5.56-.69,1.91,1.57c.26.21.43.44.53.69h0Z" style="fill:#025d4d;"/><path d="M65.01,52.59l-.53.84-2.86-.24v.02l2.15,1.35-.43.69-3.32-2.07.54-.86,2.81.22v-.02l-2.1-1.32.43-.69,3.32,2.07h0Z" style="fill:#025d4d;"/><path d="M63.56,47.65c.43-.15.94-.09,1.54.18.6.27.98.61,1.15,1.03.17.42.14.87-.08,1.36l-.63,1.4-3.57-1.61.63-1.4c.22-.49.54-.81.97-.96h0ZM65.38,50.03c.13-.3.16-.56.06-.78-.09-.22-.33-.42-.72-.6-.39-.17-.7-.23-.92-.15-.23.08-.41.27-.54.57l-.21.46,2.12.95.21-.46h0Z" style="fill:#025d4d;"/><path d="M58.89,37.26v-.05c-8.04-1.12-15.36,1.65-21.9,7.54-6.54-5.89-13.86-8.66-21.9-7.54v.05c8.38.36,15.4,4.7,21.02,9.97,1.1,1.03,2.83,2.77,3.66,3.79l-.43.36c-.38.32-.43.88-.1,1.26.32.38.88.43,1.26.1l.43-.36c.28.34.53.65.64.8,0,0,.89,1.33,1.8,2.61,2.22,3.11,5.08,1.91,5.35.36.28-1.62-1.2-2.29-2.4-2.11,0,0-.24,0-.5-.08-.86-.35-2.22-1.91-3.14-3.04l.84-.71c.38-.32.43-.88.1-1.26-.32-.38-.88-.43-1.26-.1l-.8.68c-.92-1.1-1.86-2.14-2.82-3.1,4.85-4.33,11.76-8.79,20.15-9.15v-.02Z" style="fill:#c4984f; fill-rule:evenodd;"/><path d="M41.39,21.24l4.99.48c-.49-1.9-2.66-2.66-4.85-2.38.66-.66,2.4-1.14,3.96-1.03-1.47-1.65-3.33-1.72-5.58-.71l1.97-1.99c-1.61-.65-3.2.24-3.97,1.36,0-.5-.46-2.64-.91-3-.46.36-.91,2.5-.91,3-.77-1.12-2.36-2.01-3.97-1.36l1.97,1.99c-2.25-1.01-4.1-.94-5.58.71,1.56-.11,3.29.37,3.96,1.03-2.19-.28-4.36.49-4.85,2.38l4.99-.48c-1.85.56-3.39,1.08-3.92,4.27l5.11-2.62c-1.54,1.08-2.23,4.33-1.1,5.64.39-.85,2.29-4.12,3.06-4.77.6,4.72.18,12.39-.15,13.97l-.43.58c-.96.02-2.72.09-3.7.27.61.35,1.23.72,1.81,1.1,1.95-.23,4.51-.27,5.66.21-1.39-.02-3,.28-4.43.62.8.57,1.45,1.06,1.79,1.34.2.16.45.23.69.23s.49-.07.69-.23c.71-.58,2.8-2.16,4.84-3.27-.98-.19-2.74-.26-3.7-.28l-.43-.58c-.33-1.58-.75-9.24-.15-13.97.77.66,2.67,3.92,3.06,4.77,1.13-1.32.45-4.56-1.1-5.64l5.11,2.62c-.54-3.19-2.07-3.71-3.92-4.27h.03Z" style="fill:#c4984f;"/><path d="M34.21,51.02c.45-.55,1.17-1.32,1.91-2.08-.31-.3-.6-.58-.85-.82-.29-.28-.59-.55-.9-.82-.66.7-1.32,1.44-1.95,2.21l-.8-.68c-.38-.32-.94-.27-1.26.1-.32.38-.27.94.1,1.26l.84.71c-.93,1.14-2.29,2.69-3.14,3.04-.27.09-.5.08-.5.08-1.2-.18-2.67.5-2.4,2.11.27,1.55,3.13,2.75,5.35-.36.91-1.28,1.8-2.61,1.8-2.61.11-.14.36-.46.64-.8l.43.36c.38.32.94.27,1.26-.1.32-.38.27-.94-.1-1.26l-.43-.36v.02Z" style="fill:#c4984f; fill-rule:evenodd;"/></svg>