<svg width="842" height="225" viewBox="0 0 842 225" fill="none" xmlns="http://www.w3.org/2000/svg">
<path d="M0 224.61V0H841.63V224.61H0ZM6 218.61H835.63V6H6V218.61Z" fill="#F2F2F2"/>
<path d="M82.29 31.2H112.36V78.83H177.98V31.2H208.05V144.62H177.98V88.88H112.36V144.62H82.29V31.2Z" fill="white"/>
<path d="M239.97 139.83C233.66 135.56 230.51 129.54 230.51 121.76C230.51 113.55 234.22 107.23 241.65 102.8C249.08 98.37 259.81 96.16 273.84 96.16H297.01V90.81C297.01 84.76 295.18 80.12 291.53 76.88C287.87 73.64 282.63 72.02 275.79 72.02C268.95 72.02 263.73 73.59 259.78 76.72C255.83 79.85 253.38 84.44 252.44 90.49H232.98C234.28 81.74 238.82 75.07 246.6 70.48C254.38 65.89 264.93 63.59 278.26 63.59C292.88 63.59 304.02 66.08 311.69 71.04C319.35 76.01 323.19 83.19 323.19 92.59V118.19C323.19 128.02 324.07 136.82 325.84 144.6H301.43C300.25 140.5 299.42 136.88 298.95 133.74C295.53 138.17 291.14 141.36 285.77 143.3C280.4 145.24 274.6 146.22 268.35 146.22C255.73 146.22 246.27 144.09 239.96 139.82L239.97 139.83ZM290.91 132.7C294.98 129.08 297.01 124.25 297.01 118.2V104.59H281.27C273.37 104.59 267.3 106.08 263.05 109.05C258.81 112.02 256.68 116.21 256.68 121.61C256.68 127.01 258.12 131.25 261.01 134C263.9 136.75 268.17 138.13 273.83 138.13C281.14 138.13 286.83 136.32 290.9 132.7H290.91Z" fill="white"/>
<path d="M352.63 53.23C349.5 50.64 347.94 47.34 347.94 43.35C347.94 39.36 349.5 36.06 352.63 33.47C355.75 30.88 359.73 29.58 364.57 29.58C369.41 29.58 373.38 30.88 376.51 33.47C379.63 36.06 381.2 39.36 381.2 43.35C381.2 47.34 379.64 50.64 376.51 53.23C373.38 55.82 369.4 57.12 364.57 57.12C359.74 57.12 355.75 55.82 352.63 53.23ZM351.48 65.22H377.66V144.61H351.48V65.22Z" fill="#B3B3B3"/>
<path d="M405.07 65.22H431.25V78.34C433.96 73.8 438.12 70.21 443.72 67.57C449.32 64.92 455.6 63.6 462.56 63.6C474.11 63.6 483.22 66.3 489.89 71.7C496.55 77.1 499.88 84.56 499.88 94.06V144.61H473.7V92.6C473.7 78.88 467.45 72.02 454.95 72.02C447.64 72.02 441.86 74.51 437.62 79.47C433.37 84.44 431.25 91.14 431.25 99.56V144.6H405.07V65.21V65.22Z" fill="#B3B3B3"/>
<path d="M528.96 139.83C522.65 135.56 519.5 129.54 519.5 121.76C519.5 113.55 523.21 107.23 530.64 102.8C538.07 98.37 548.8 96.16 562.83 96.16H586V90.81C586 84.76 584.17 80.12 580.52 76.88C576.86 73.64 571.62 72.02 564.78 72.02C557.94 72.02 552.72 73.59 548.77 76.72C544.82 79.85 542.37 84.44 541.43 90.49H521.97C523.27 81.74 527.81 75.07 535.59 70.48C543.37 65.89 553.92 63.59 567.25 63.59C581.87 63.59 593.01 66.08 600.68 71.04C608.34 76.01 612.18 83.19 612.18 92.59V118.19C612.18 128.02 613.06 136.82 614.83 144.6H590.42C589.24 140.5 588.41 136.88 587.94 133.74C584.52 138.17 580.13 141.36 574.76 143.3C569.39 145.24 563.59 146.22 557.34 146.22C544.72 146.22 535.26 144.09 528.95 139.82L528.96 139.83ZM579.9 132.7C583.97 129.08 586 124.25 586 118.2V104.59H570.26C562.36 104.59 556.29 106.08 552.04 109.05C547.8 112.02 545.67 116.21 545.67 121.61C545.67 127.01 547.11 131.25 550 134C552.89 136.75 557.16 138.13 562.82 138.13C570.13 138.13 575.82 136.32 579.89 132.7H579.9Z" fill="white"/>
<path d="M638.17 31.2H667.71L731.03 107.84V31.2H759.33V144.62H739.17L666.48 55.51V144.62H638.18V31.2H638.17Z" fill="white"/>
<path d="M71.77 200.04H56.39V198.6C57.92 198.6 59.03 198.49 59.73 198.28C60.43 198.07 60.87 197.66 61.05 197.05C61.24 196.44 61.33 195.53 61.33 194.31V177.93C61.33 176.83 61.24 175.96 61.08 175.32C60.91 174.68 60.49 174.24 59.81 173.98C59.13 173.73 57.99 173.6 56.4 173.6V172.16H71.83V173.6C70.27 173.6 69.14 173.73 68.44 173.98C67.74 174.23 67.32 174.68 67.17 175.32C67.02 175.96 66.94 176.83 66.94 177.93V194.31C66.94 195.53 67.03 196.44 67.22 197.05C67.41 197.66 67.85 198.07 68.54 198.28C69.24 198.49 70.31 198.6 71.77 198.6V200.04Z" fill="white"/>
<path d="M106.4 200.38H103.4L82.83 177.93H81.25L80.13 176.15C79.52 175.41 78.97 174.87 78.48 174.52C77.99 174.17 77.48 173.93 76.95 173.8C76.42 173.67 75.77 173.61 74.99 173.61V172.17H84.82L103.35 192.49H103.6V179.08C103.6 177.84 103.5 176.81 103.29 176C103.09 175.19 102.65 174.59 101.99 174.2C101.33 173.8 100.25 173.61 98.76 173.61V172.17H111.03V173.61C109.67 173.61 108.66 173.82 108 174.23C107.34 174.64 106.91 175.26 106.7 176.08C106.49 176.9 106.39 177.96 106.39 179.26V200.39L106.4 200.38ZM87.2 200.04H74.98V198.6C76.34 198.6 77.36 198.39 78.03 197.98C78.71 197.57 79.17 196.92 79.41 196.03C79.65 195.14 79.77 193.99 79.77 192.57V174.92H82.57V193.55C82.57 194.97 82.69 196.03 82.93 196.75C83.17 197.47 83.63 197.96 84.31 198.21C84.99 198.46 85.96 198.59 87.21 198.59V200.03L87.2 200.04Z" fill="white"/>
<path d="M114.09 200.04V198.6C115.45 198.6 116.47 198.52 117.15 198.35C117.83 198.18 118.3 197.83 118.55 197.31C118.8 196.79 118.93 196 118.93 194.95V177.13C118.93 176.14 118.78 175.4 118.5 174.9C118.21 174.41 117.71 174.07 117 173.88C116.29 173.7 115.32 173.6 114.1 173.6V172.16H141.65L141.96 179.37H140.02C139.78 178.35 139.54 177.52 139.28 176.87C139.02 176.22 138.64 175.71 138.13 175.34C137.62 174.97 136.88 174.71 135.92 174.56C134.95 174.4 133.64 174.33 131.97 174.33H124.54V184.81H129.89C131.35 184.81 132.49 184.7 133.3 184.49C134.11 184.28 134.68 183.87 134.98 183.28C135.29 182.69 135.44 181.82 135.44 180.69H137.38V190.58H135.44C135.44 189.42 135.29 188.56 134.98 188.01C134.67 187.46 134.11 187.1 133.3 186.93C132.49 186.76 131.35 186.68 129.89 186.68H124.54V195.21C124.54 196.17 124.7 196.89 125.02 197.37C125.34 197.85 125.89 198.18 126.67 198.35C127.45 198.52 128.5 198.6 129.83 198.6V200.04H114.09Z" fill="white"/>
<path d="M159.96 200.04H144.68V198.6C145.97 198.6 146.95 198.52 147.61 198.35C148.27 198.18 148.72 197.81 148.96 197.25C149.2 196.68 149.32 195.81 149.32 194.62V176.8C149.32 176.01 149.22 175.38 149.01 174.91C148.8 174.44 148.37 174.11 147.71 173.91C147.05 173.71 146.04 173.61 144.68 173.61V172.17H158.53C161.01 172.17 163.25 172.38 165.25 172.81C167.25 173.23 168.83 173.95 169.99 174.95C171.14 175.95 171.72 177.36 171.72 179.17C171.72 180.75 171.3 182.03 170.47 183.01C169.64 183.99 168.59 184.75 167.31 185.3C166.03 185.85 164.69 186.27 163.26 186.55V186.72C163.84 187 164.47 187.48 165.17 188.16C165.87 188.84 166.77 189.84 167.89 191.15C169.01 192.47 170.5 194.23 172.37 196.43C173.15 197.36 173.94 197.96 174.74 198.21C175.54 198.46 176.51 198.59 177.67 198.59V200.03H168.25C166.93 198.31 165.83 196.86 164.97 195.7C164.1 194.54 163.37 193.57 162.76 192.79C162.15 192.01 161.61 191.32 161.13 190.71C160.65 190.1 160.16 189.47 159.65 188.82C159.14 188.17 158.67 187.77 158.25 187.61C157.82 187.45 157.16 187.38 156.24 187.38H154.92V194.64C154.92 195.77 155.04 196.63 155.28 197.21C155.52 197.79 155.99 198.16 156.71 198.33C157.43 198.5 158.51 198.58 159.97 198.58V200.02L159.96 200.04ZM154.92 185.61L156.86 185.65C158.69 185.57 160.26 185.32 161.57 184.93C162.88 184.53 163.89 183.89 164.62 183C165.35 182.11 165.71 180.9 165.71 179.37C165.71 177.7 165.12 176.38 163.93 175.4C162.74 174.42 160.84 173.94 158.23 173.94C157.69 173.94 157.14 173.94 156.58 173.96C156.02 173.97 155.47 174.01 154.93 174.07V185.61H154.92Z" fill="white"/>
<path d="M188.42 200.04H177.47V198.6C178.39 198.6 179.13 198.48 179.71 198.24C180.29 198 180.83 197.52 181.34 196.8C181.85 196.08 182.46 194.98 183.17 193.51L194.07 171.95H197.18L208.89 194.74C209.64 196.13 210.37 197.12 211.08 197.71C211.79 198.3 212.79 198.6 214.08 198.6V200.04H199.57V198.6C200.05 198.6 200.55 198.57 201.07 198.52C201.6 198.46 202.04 198.33 202.39 198.12C202.74 197.91 202.92 197.56 202.92 197.08C202.92 196.77 202.84 196.38 202.69 195.91C202.54 195.44 202.31 194.9 202 194.28L200.01 190.42L199.65 189.49L194.15 177.57H194L188.25 189.49L187.84 190.42L185.6 194.92C185.46 195.26 185.33 195.61 185.19 195.98C185.05 196.35 184.99 196.73 184.99 197.13C184.99 197.75 185.26 198.16 185.8 198.34C186.34 198.52 187.21 198.62 188.4 198.62V200.06L188.42 200.04ZM200.9 190.87H187.05L187.86 189H200.08L200.89 190.87H200.9Z" fill="white"/>
<path d="M218.36 200.63H216.58L216.12 191.46H218C218.58 193.38 219.26 194.85 220.04 195.87C220.82 196.89 221.77 197.58 222.89 197.95C224.01 198.32 225.37 198.5 226.96 198.5C228.18 198.5 229.26 198.36 230.19 198.08C231.12 197.8 231.86 197.34 232.4 196.72C232.94 196.1 233.21 195.28 233.21 194.26C233.21 193.02 232.82 191.99 232.04 191.18C231.26 190.37 230.24 189.67 228.98 189.06C227.72 188.45 226.42 187.84 225.06 187.21C223.63 186.56 222.28 185.87 220.99 185.15C219.7 184.43 218.66 183.54 217.86 182.5C217.06 181.45 216.66 180.15 216.66 178.6C216.66 177.05 217.11 175.8 218.01 174.78C218.91 173.76 220.12 172.98 221.65 172.45C223.18 171.92 224.91 171.64 226.84 171.64C228.3 171.64 229.45 171.74 230.3 171.94C231.15 172.14 231.83 172.34 232.34 172.56C232.85 172.77 233.31 172.88 233.72 172.88C234.09 172.88 234.42 172.8 234.69 172.63C234.96 172.46 235.17 172.16 235.3 171.74H236.83L237.14 180.35H235.36C234.65 177.92 233.69 176.16 232.48 175.07C231.27 173.98 229.48 173.45 227.11 173.48C225.34 173.48 224 173.79 223.06 174.41C222.13 175.03 221.66 175.97 221.66 177.21C221.66 178.26 222.02 179.15 222.73 179.88C223.44 180.62 224.38 181.27 225.56 181.83C226.73 182.4 227.96 182.98 229.25 183.57C230.37 184.08 231.5 184.6 232.64 185.14C233.78 185.68 234.81 186.29 235.75 186.99C236.68 187.68 237.43 188.5 237.99 189.45C238.55 190.4 238.83 191.51 238.83 192.78C238.83 194.45 238.35 195.86 237.4 197.02C236.45 198.18 235.13 199.06 233.45 199.65C231.77 200.24 229.86 200.54 227.72 200.54C225.99 200.54 224.61 200.43 223.57 200.22C222.53 200.01 221.73 199.8 221.15 199.58C220.57 199.37 220.1 199.26 219.72 199.26C219.34 199.26 219.03 199.39 218.78 199.64C218.53 199.89 218.38 200.22 218.35 200.62L218.36 200.63Z" fill="white"/>
<path d="M247.95 200.04V198.6C249.41 198.6 250.49 198.51 251.18 198.32C251.88 198.14 252.34 197.74 252.58 197.13C252.82 196.52 252.94 195.58 252.94 194.31V174.2H249.99C248.12 174.2 246.72 174.37 245.79 174.71C244.86 175.05 244.19 175.64 243.78 176.47C243.37 177.3 242.98 178.5 242.61 180.05H240.73L241.29 172.16H270.36L270.77 180.05H268.89C268.52 178.5 268.13 177.3 267.72 176.47C267.31 175.64 266.65 175.05 265.73 174.71C264.81 174.37 263.4 174.2 261.5 174.2H258.6V194.31C258.6 195.58 258.71 196.52 258.93 197.13C259.15 197.74 259.62 198.13 260.33 198.32C261.04 198.5 262.13 198.6 263.59 198.6V200.04H247.95Z" fill="white"/>
<path d="M288.88 200.04H273.6V198.6C274.89 198.6 275.87 198.52 276.53 198.35C277.19 198.18 277.64 197.81 277.88 197.25C278.12 196.68 278.24 195.81 278.24 194.62V176.8C278.24 176.01 278.14 175.38 277.93 174.91C277.72 174.44 277.29 174.11 276.63 173.91C275.97 173.71 274.96 173.61 273.6 173.61V172.17H287.45C289.93 172.17 292.17 172.38 294.17 172.81C296.17 173.23 297.75 173.95 298.91 174.95C300.06 175.95 300.64 177.36 300.64 179.17C300.64 180.75 300.22 182.03 299.39 183.01C298.56 183.99 297.51 184.75 296.23 185.3C294.95 185.85 293.61 186.27 292.18 186.55V186.72C292.76 187 293.39 187.48 294.09 188.16C294.79 188.84 295.69 189.84 296.81 191.15C297.93 192.47 299.42 194.23 301.29 196.43C302.07 197.36 302.86 197.96 303.66 198.21C304.46 198.46 305.43 198.59 306.59 198.59V200.03H297.17C295.85 198.31 294.75 196.86 293.89 195.7C293.02 194.54 292.29 193.57 291.68 192.79C291.07 192.01 290.53 191.32 290.05 190.71C289.57 190.1 289.08 189.47 288.57 188.82C288.06 188.17 287.59 187.77 287.17 187.61C286.74 187.45 286.08 187.38 285.16 187.38H283.84V194.64C283.84 195.77 283.96 196.63 284.2 197.21C284.44 197.79 284.91 198.16 285.63 198.33C286.35 198.5 287.43 198.58 288.89 198.58V200.02L288.88 200.04ZM283.84 185.61L285.78 185.65C287.61 185.57 289.18 185.32 290.49 184.93C291.8 184.53 292.81 183.89 293.54 183C294.27 182.11 294.63 180.9 294.63 179.37C294.63 177.7 294.04 176.38 292.85 175.4C291.66 174.42 289.76 173.94 287.15 173.94C286.61 173.94 286.06 173.94 285.5 173.96C284.94 173.97 284.39 174.01 283.85 174.07V185.61H283.84Z" fill="white"/>
<path d="M324.17 200.59C319.38 200.59 315.91 199.72 313.76 197.98C311.6 196.24 310.53 193.4 310.53 189.47V177.33C310.53 176.34 310.4 175.58 310.15 175.04C309.9 174.5 309.42 174.13 308.72 173.92C308.02 173.71 307 173.6 305.64 173.6V172.16H321.07V173.6C319.68 173.6 318.63 173.71 317.91 173.92C317.19 174.13 316.72 174.52 316.48 175.09C316.24 175.66 316.12 176.48 316.12 177.55V189.22C316.12 191.06 316.4 192.6 316.96 193.84C317.52 195.09 318.48 196.03 319.84 196.66C321.2 197.3 323.06 197.61 325.44 197.61C328.7 197.61 331.07 196.97 332.54 195.7C334.02 194.43 334.75 192.33 334.75 189.42V179.02C334.75 177.52 334.65 176.38 334.44 175.6C334.23 174.82 333.79 174.29 333.12 174.01C332.44 173.73 331.39 173.59 329.96 173.59V172.15H342.69V173.59C341.23 173.59 340.15 173.73 339.46 174.01C338.76 174.29 338.32 174.81 338.14 175.56C337.95 176.31 337.86 177.42 337.86 178.89V188.9C337.86 192.78 336.8 195.69 334.68 197.64C332.56 199.59 329.05 200.57 324.17 200.57V200.59Z" fill="white"/>
<path d="M362 200.51C358.44 200.51 355.47 199.89 353.09 198.66C350.71 197.43 348.93 195.73 347.74 193.57C346.55 191.41 345.96 188.95 345.96 186.21C345.96 183.07 346.68 180.42 348.12 178.25C349.56 176.09 351.56 174.45 354.1 173.33C356.65 172.21 359.56 171.65 362.86 171.65C364.66 171.65 366.09 171.77 367.16 172.01C368.23 172.25 369.08 172.5 369.71 172.75C370.34 173 370.87 173.13 371.31 173.13C371.79 173.13 372.12 172.98 372.33 172.68C372.54 172.38 372.75 172.04 372.99 171.64H374.72V181.57H372.78C372.2 178.86 371.06 176.85 369.34 175.55C367.63 174.25 365.46 173.6 362.85 173.6C359.35 173.6 356.69 174.65 354.86 176.76C353.03 178.87 352.11 181.8 352.11 185.56C352.11 188.33 352.59 190.59 353.54 192.33C354.49 194.07 355.84 195.35 357.59 196.17C359.34 196.99 361.4 197.4 363.78 197.4C366.16 197.4 368.24 197.03 369.94 196.3C371.64 195.57 373.22 194.55 374.68 193.25L376 194.23C375.02 195.42 373.9 196.49 372.64 197.43C371.38 198.38 369.89 199.13 368.16 199.68C366.43 200.23 364.37 200.51 362 200.51Z" fill="white"/>
<path d="M385.63 200.04V198.6C387.09 198.6 388.17 198.51 388.86 198.32C389.56 198.14 390.02 197.74 390.26 197.13C390.5 196.52 390.62 195.58 390.62 194.31V174.2H387.67C385.8 174.2 384.4 174.37 383.47 174.71C382.54 175.05 381.87 175.64 381.46 176.47C381.05 177.3 380.66 178.5 380.29 180.05H378.41L378.97 172.16H408.04L408.45 180.05H406.57C406.2 178.5 405.81 177.3 405.4 176.47C404.99 175.64 404.33 175.05 403.41 174.71C402.49 174.37 401.08 174.2 399.18 174.2H396.28V194.31C396.28 195.58 396.39 196.52 396.61 197.13C396.83 197.74 397.3 198.13 398.01 198.32C398.72 198.5 399.81 198.6 401.27 198.6V200.04H385.63Z" fill="white"/>
<path d="M428.96 200.59C424.17 200.59 420.7 199.72 418.55 197.98C416.39 196.24 415.32 193.4 415.32 189.47V177.33C415.32 176.34 415.19 175.58 414.94 175.04C414.69 174.5 414.21 174.13 413.51 173.92C412.81 173.71 411.79 173.6 410.43 173.6V172.16H425.86V173.6C424.47 173.6 423.42 173.71 422.7 173.92C421.98 174.13 421.51 174.52 421.27 175.09C421.03 175.66 420.91 176.48 420.91 177.55V189.22C420.91 191.06 421.19 192.6 421.75 193.84C422.31 195.09 423.27 196.03 424.63 196.66C425.99 197.29 427.85 197.61 430.23 197.61C433.49 197.61 435.86 196.97 437.33 195.7C438.81 194.43 439.54 192.33 439.54 189.42V179.02C439.54 177.52 439.44 176.38 439.23 175.6C439.03 174.82 438.59 174.29 437.91 174.01C437.23 173.73 436.18 173.59 434.75 173.59V172.15H447.48V173.59C446.02 173.59 444.94 173.73 444.25 174.01C443.55 174.29 443.11 174.81 442.93 175.56C442.74 176.31 442.65 177.42 442.65 178.89V188.9C442.65 192.78 441.59 195.69 439.47 197.64C437.35 199.59 433.84 200.57 428.96 200.57V200.59Z" fill="white"/>
<path d="M465.62 200.04H450.34V198.6C451.63 198.6 452.61 198.52 453.27 198.35C453.93 198.18 454.38 197.81 454.62 197.25C454.86 196.68 454.98 195.81 454.98 194.62V176.8C454.98 176.01 454.88 175.38 454.67 174.91C454.47 174.44 454.03 174.11 453.37 173.91C452.71 173.71 451.7 173.61 450.34 173.61V172.17H464.19C466.67 172.17 468.91 172.38 470.91 172.81C472.91 173.23 474.49 173.95 475.65 174.95C476.8 175.95 477.38 177.36 477.38 179.17C477.38 180.75 476.96 182.03 476.13 183.01C475.3 183.99 474.25 184.75 472.97 185.3C471.7 185.85 470.35 186.27 468.92 186.55V186.72C469.5 187 470.13 187.48 470.83 188.16C471.53 188.84 472.43 189.84 473.55 191.15C474.67 192.47 476.16 194.23 478.03 196.43C478.81 197.36 479.6 197.96 480.4 198.21C481.2 198.46 482.17 198.59 483.33 198.59V200.03H473.91C472.59 198.31 471.49 196.86 470.63 195.7C469.76 194.54 469.03 193.57 468.42 192.79C467.81 192.01 467.27 191.32 466.79 190.71C466.31 190.1 465.82 189.47 465.31 188.82C464.8 188.17 464.33 187.77 463.91 187.61C463.49 187.45 462.82 187.38 461.9 187.38H460.58V194.64C460.58 195.77 460.7 196.63 460.94 197.21C461.18 197.79 461.65 198.16 462.37 198.33C463.09 198.5 464.17 198.58 465.63 198.58V200.02L465.62 200.04ZM460.58 185.61L462.51 185.65C464.34 185.57 465.91 185.32 467.22 184.93C468.53 184.53 469.55 183.89 470.27 183C471 182.11 471.36 180.9 471.36 179.37C471.36 177.7 470.77 176.38 469.58 175.4C468.39 174.42 466.49 173.94 463.88 173.94C463.34 173.94 462.79 173.94 462.22 173.96C461.66 173.97 461.11 174.01 460.57 174.07V185.61H460.58Z" fill="white"/>
<path d="M512.61 200.04H484.81V198.6C486.1 198.6 487.09 198.52 487.79 198.37C488.49 198.21 488.97 197.87 489.24 197.35C489.51 196.83 489.65 196.01 489.65 194.91V177.51C489.65 176.44 489.53 175.62 489.29 175.05C489.05 174.48 488.59 174.1 487.91 173.9C487.23 173.7 486.2 173.6 484.8 173.6V172.16H512.09L512.4 179.33H510.46C510.22 177.97 509.87 176.93 509.42 176.21C508.96 175.49 508.2 174.99 507.13 174.72C506.06 174.45 504.51 174.32 502.47 174.32H495.24V184.76H500.74C502.37 184.76 503.58 184.66 504.38 184.46C505.18 184.26 505.71 183.87 505.98 183.29C506.25 182.71 506.39 181.85 506.39 180.72H508.27V190.56H506.39C506.39 189.37 506.26 188.5 505.98 187.95C505.71 187.4 505.17 187.04 504.38 186.87C503.58 186.7 502.37 186.62 500.74 186.62H495.24V197.95H501.66C503.53 197.95 505.04 197.87 506.22 197.7C507.4 197.53 508.32 197.23 509 196.81C509.68 196.39 510.25 195.78 510.71 195.01C511.17 194.23 511.64 193.24 512.11 192.02H513.99L512.61 200.04Z" fill="white"/>
<path d="M545 200.04H529.47V198.6C530.83 198.6 531.84 198.5 532.5 198.3C533.16 198.1 533.59 197.71 533.77 197.13C533.96 196.55 534.05 195.67 534.05 194.48V176.7C534.05 175.4 533.73 174.56 533.08 174.17C532.43 173.79 531.28 173.6 529.62 173.6V172.16H543.47C545.13 172.16 546.74 172.27 548.28 172.48C549.82 172.69 551.2 173.05 552.4 173.56C553.6 174.07 554.56 174.8 555.25 175.75C555.95 176.7 556.29 177.89 556.29 179.34C556.29 181.01 555.92 182.4 555.17 183.52C554.42 184.64 553.41 185.54 552.14 186.21C550.87 186.89 549.42 187.37 547.81 187.65C546.2 187.93 544.54 188.07 542.85 188.07C542.31 188.07 541.73 188.03 541.12 187.96C540.51 187.89 540.02 187.8 539.64 187.68V194.64C539.64 195.8 539.77 196.66 540.05 197.23C540.32 197.8 540.84 198.16 541.6 198.33C542.36 198.5 543.49 198.58 544.99 198.58V200.02L545 200.04ZM542.4 186.12C544.16 186.12 545.63 185.94 546.8 185.59C547.97 185.24 548.86 184.6 549.47 183.68C550.08 182.76 550.39 181.48 550.39 179.84C550.39 177.92 549.76 176.45 548.51 175.45C547.25 174.45 545.27 173.94 542.55 173.94C542.07 173.94 541.61 173.95 541.15 173.98C540.69 174.01 540.19 174.05 539.65 174.11V185.95C539.95 185.98 540.35 186.01 540.82 186.06C541.29 186.1 541.82 186.12 542.4 186.12Z" fill="white"/>
<path d="M564.4 200.04H553.45V198.6C554.37 198.6 555.11 198.48 555.69 198.24C556.27 198 556.81 197.52 557.32 196.8C557.83 196.08 558.44 194.98 559.15 193.51L570.05 171.95H573.16L584.87 194.74C585.62 196.13 586.35 197.12 587.06 197.71C587.77 198.3 588.77 198.6 590.06 198.6V200.04H575.55V198.6C576.02 198.6 576.53 198.57 577.05 198.52C577.57 198.47 578.02 198.33 578.37 198.12C578.72 197.91 578.9 197.56 578.9 197.08C578.9 196.77 578.82 196.38 578.67 195.91C578.52 195.44 578.29 194.9 577.98 194.28L575.99 190.42L575.63 189.49L570.13 177.57H569.98L564.23 189.49L563.82 190.42L561.58 194.92C561.44 195.26 561.31 195.61 561.17 195.98C561.03 196.35 560.97 196.73 560.97 197.13C560.97 197.75 561.24 198.16 561.78 198.34C562.32 198.52 563.19 198.62 564.38 198.62V200.06L564.4 200.04ZM576.87 190.87H563.02L563.83 189H576.05L576.87 190.87Z" fill="white"/>
<path d="M607.68 200.04H592.41V198.6C593.7 198.6 594.68 198.52 595.34 198.35C596 198.18 596.45 197.81 596.69 197.25C596.93 196.68 597.05 195.81 597.05 194.62V176.8C597.05 176.01 596.95 175.38 596.74 174.91C596.54 174.44 596.1 174.11 595.44 173.91C594.78 173.71 593.77 173.61 592.41 173.61V172.17H606.26C608.74 172.17 610.98 172.38 612.98 172.81C614.98 173.23 616.56 173.95 617.72 174.95C618.87 175.95 619.45 177.36 619.45 179.17C619.45 180.75 619.03 182.03 618.2 183.01C617.37 183.99 616.32 184.75 615.04 185.3C613.77 185.85 612.42 186.27 610.99 186.55V186.72C611.57 187 612.2 187.48 612.9 188.16C613.6 188.84 614.5 189.84 615.62 191.15C616.74 192.46 618.23 194.23 620.1 196.43C620.88 197.36 621.67 197.96 622.47 198.21C623.27 198.46 624.24 198.59 625.4 198.59V200.03H615.98C614.66 198.31 613.56 196.86 612.7 195.7C611.83 194.54 611.1 193.57 610.49 192.79C609.88 192.01 609.34 191.32 608.86 190.71C608.38 190.1 607.89 189.47 607.38 188.82C606.87 188.17 606.4 187.77 605.98 187.61C605.56 187.45 604.89 187.38 603.97 187.38H602.65V194.64C602.65 195.77 602.77 196.63 603.01 197.21C603.25 197.79 603.72 198.16 604.44 198.33C605.15 198.5 606.24 198.58 607.7 198.58V200.02L607.68 200.04ZM602.64 185.61L604.57 185.65C606.4 185.57 607.97 185.32 609.28 184.93C610.59 184.53 611.6 183.89 612.33 183C613.06 182.11 613.42 180.9 613.42 179.37C613.42 177.7 612.83 176.38 611.64 175.4C610.45 174.42 608.55 173.94 605.94 173.94C605.4 173.94 604.85 173.94 604.28 173.96C603.72 173.97 603.17 174.01 602.63 174.07V185.61H602.64Z" fill="white"/>
<path d="M631.51 200.04V198.6C632.97 198.6 634.05 198.51 634.74 198.32C635.44 198.14 635.9 197.74 636.14 197.13C636.38 196.52 636.5 195.58 636.5 194.31V174.2H633.55C631.68 174.2 630.28 174.37 629.35 174.71C628.42 175.05 627.75 175.64 627.34 176.47C626.93 177.3 626.54 178.5 626.17 180.05H624.29L624.85 172.16H653.92L654.33 180.05H652.45C652.08 178.5 651.69 177.3 651.28 176.47C650.87 175.64 650.21 175.05 649.29 174.71C648.37 174.37 646.96 174.2 645.06 174.2H642.16V194.31C642.16 195.58 642.27 196.52 642.49 197.13C642.71 197.74 643.18 198.13 643.89 198.32C644.6 198.5 645.69 198.6 647.15 198.6V200.04H631.51Z" fill="white"/>
<path d="M687.92 200.38H684.92L664.35 177.93H662.77L661.65 176.15C661.04 175.41 660.49 174.87 659.99 174.52C659.5 174.17 658.99 173.93 658.46 173.8C657.93 173.67 657.28 173.61 656.5 173.61V172.17H666.33L684.86 192.49H685.11V179.08C685.11 177.84 685.01 176.81 684.8 176C684.6 175.19 684.16 174.59 683.5 174.2C682.84 173.8 681.76 173.61 680.27 173.61V172.17H692.54V173.61C691.18 173.61 690.17 173.82 689.51 174.23C688.85 174.64 688.42 175.26 688.21 176.08C688.01 176.9 687.9 177.96 687.9 179.26V200.39L687.92 200.38ZM668.73 200.04H656.51V198.6C657.87 198.6 658.89 198.39 659.56 197.98C660.24 197.57 660.7 196.92 660.94 196.03C661.18 195.14 661.3 193.99 661.3 192.57V174.92H664.1V193.55C664.1 194.97 664.22 196.03 664.46 196.75C664.7 197.47 665.16 197.96 665.83 198.21C666.51 198.46 667.48 198.59 668.73 198.59V200.04Z" fill="white"/>
<path d="M723.41 200.04H695.61V198.6C696.9 198.6 697.89 198.52 698.59 198.37C699.29 198.21 699.77 197.87 700.04 197.35C700.31 196.83 700.45 196.01 700.45 194.91V177.51C700.45 176.44 700.33 175.62 700.09 175.05C699.85 174.48 699.39 174.1 698.72 173.9C698.04 173.7 697.01 173.6 695.61 173.6V172.16H722.9L723.21 179.33H721.27C721.03 177.97 720.69 176.93 720.23 176.21C719.77 175.49 719.01 174.99 717.94 174.72C716.87 174.45 715.32 174.32 713.28 174.32H706.05V184.76H711.55C713.18 184.76 714.39 184.66 715.19 184.46C715.99 184.26 716.52 183.87 716.79 183.29C717.06 182.71 717.2 181.85 717.2 180.72H719.08V190.56H717.2C717.2 189.37 717.06 188.5 716.79 187.95C716.52 187.4 715.98 187.04 715.19 186.87C714.39 186.7 713.18 186.62 711.55 186.62H706.05V197.95H712.47C714.34 197.95 715.86 197.87 717.03 197.7C718.2 197.53 719.13 197.23 719.8 196.81C720.48 196.39 721.05 195.78 721.51 195.01C721.97 194.23 722.43 193.24 722.91 192.02H724.79L723.41 200.04Z" fill="white"/>
<path d="M743.52 200.04H728.25V198.6C729.54 198.6 730.52 198.52 731.18 198.35C731.84 198.18 732.29 197.81 732.53 197.25C732.77 196.68 732.89 195.81 732.89 194.62V176.8C732.89 176.01 732.79 175.38 732.58 174.91C732.38 174.44 731.94 174.11 731.28 173.91C730.62 173.71 729.61 173.61 728.25 173.61V172.17H742.1C744.58 172.17 746.82 172.38 748.82 172.81C750.82 173.23 752.4 173.95 753.56 174.95C754.71 175.95 755.29 177.36 755.29 179.17C755.29 180.75 754.87 182.03 754.04 183.01C753.21 183.99 752.16 184.75 750.88 185.3C749.61 185.85 748.26 186.27 746.83 186.55V186.72C747.41 187 748.04 187.48 748.74 188.16C749.44 188.84 750.34 189.84 751.46 191.15C752.58 192.46 754.07 194.23 755.94 196.43C756.72 197.36 757.51 197.96 758.31 198.21C759.11 198.46 760.08 198.59 761.24 198.59V200.03H751.82C750.5 198.31 749.4 196.86 748.54 195.7C747.67 194.54 746.94 193.57 746.33 192.79C745.72 192.01 745.18 191.32 744.7 190.71C744.22 190.1 743.73 189.47 743.22 188.82C742.71 188.17 742.24 187.77 741.82 187.61C741.4 187.45 740.73 187.38 739.81 187.38H738.49V194.64C738.49 195.77 738.61 196.63 738.85 197.21C739.09 197.79 739.56 198.16 740.28 198.33C740.99 198.5 742.08 198.58 743.54 198.58V200.02L743.52 200.04ZM738.48 185.61L740.41 185.65C742.24 185.57 743.81 185.32 745.12 184.93C746.43 184.53 747.44 183.89 748.17 183C748.9 182.11 749.26 180.9 749.26 179.37C749.26 177.7 748.67 176.38 747.48 175.4C746.29 174.42 744.39 173.94 741.78 173.94C741.24 173.94 740.69 173.94 740.12 173.96C739.56 173.97 739.01 174.01 738.47 174.07V185.61H738.48Z" fill="white"/>
<path d="M764.86 200.63H763.08L762.62 191.46H764.5C765.08 193.38 765.75 194.85 766.54 195.87C767.33 196.89 768.27 197.58 769.39 197.95C770.51 198.32 771.87 198.5 773.46 198.5C774.68 198.5 775.76 198.36 776.69 198.08C777.62 197.8 778.36 197.34 778.9 196.72C779.44 196.1 779.72 195.28 779.72 194.26C779.72 193.02 779.33 191.99 778.55 191.18C777.77 190.37 776.75 189.67 775.5 189.06C774.24 188.45 772.94 187.84 771.58 187.21C770.15 186.56 768.8 185.87 767.51 185.15C766.22 184.43 765.18 183.54 764.38 182.5C763.58 181.45 763.18 180.15 763.18 178.6C763.18 177.05 763.63 175.8 764.53 174.78C765.43 173.76 766.64 172.98 768.17 172.45C769.7 171.92 771.43 171.64 773.36 171.64C774.82 171.64 775.97 171.74 776.82 171.94C777.67 172.14 778.35 172.34 778.86 172.56C779.37 172.77 779.83 172.88 780.24 172.88C780.61 172.88 780.94 172.8 781.21 172.63C781.48 172.46 781.68 172.16 781.82 171.74H783.35L783.65 180.35H781.87C781.16 177.92 780.2 176.16 778.99 175.07C777.78 173.98 775.99 173.45 773.62 173.48C771.85 173.48 770.5 173.79 769.57 174.41C768.64 175.03 768.17 175.97 768.17 177.21C768.17 178.26 768.53 179.15 769.24 179.88C769.95 180.62 770.89 181.27 772.07 181.83C773.24 182.4 774.47 182.98 775.76 183.57C776.88 184.08 778.01 184.6 779.15 185.14C780.29 185.68 781.32 186.29 782.26 186.99C783.19 187.68 783.94 188.5 784.5 189.45C785.06 190.4 785.34 191.51 785.34 192.78C785.34 194.45 784.86 195.86 783.91 197.02C782.96 198.18 781.64 199.06 779.96 199.65C778.28 200.24 776.37 200.54 774.23 200.54C772.5 200.54 771.11 200.43 770.08 200.22C769.04 200.01 768.24 199.8 767.66 199.58C767.08 199.37 766.61 199.26 766.23 199.26C765.85 199.26 765.54 199.39 765.29 199.64C765.04 199.89 764.89 200.22 764.86 200.62V200.63Z" fill="white"/>
<path d="M789.63 151.55H51.99V155.55H789.63V151.55Z" fill="white"/>
</svg>
